<svg version="1.0" xmlns="http://www.w3.org/2000/svg" width="24" height="24" viewBox="0 0 560.000000 560.000000" preserveAspectRatio="xMidYMid meet">
    <g transform="translate(0.000000,560.000000) scale(0.100000,-0.100000)" fill="#aaaaaa" stroke="none">
        <path d="M2515 5590 c-137 -15 -274 -41 -420 -77 -145 -36 -385 -119 -385 -133 0 -16 -360 -3046 -365 -3075 -3 -18 -2 -26 4 -20 13 13 1831 3264 1834 3278 1 7 -19 15 -48 19 -78 12 -531 18 -620 8z"/>
        <path d="M2557 3812 c-438 -950 -797 -1731 -797 -1735 0 -4 668 611 1485 1366 l1485 1372 -72 69 c-92 86 -274 224 -398 301 -139 86 -396 207 -550 260 -128 44 -313 95 -342 95 -8 0 -324 -672 -811 -1728z"/>
        <path d="M1390 5227 c-315 -180 -615 -446 -841 -746 l-66 -88 201 -1011 c111 -556 203 -1013 206 -1016 3 -3 135 648 294 1445 158 798 286 1453 284 1455 -2 2 -37 -16 -78 -39z"/>
        <path d="M3482 3262 c-737 -797 -1354 -1465 -1372 -1485 l-32 -37 88 41 c1196 549 3365 1553 3368 1558 8 12 -72 305 -114 421 -83 229 -214 474 -361 680 -76 106 -215 270 -229 270 -5 0 -611 -652 -1348 -1448z"/>
        <path d="M192 3848 c-87 -221 -147 -450 -177 -673 l-16 -120 217 -388 c119 -213 218 -386 219 -385 5 4 -193 1659 -198 1664 -2 3 -22 -42 -45 -98z"/>
        <path d="M3917 2248 c-895 -501 -1626 -912 -1625 -914 2 -1 693 80 1537 180 l1535 182 39 104 c82 220 133 419 163 640 29 212 22 721 -9 720 -7 -1 -744 -411 -1640 -912z"/>
        <path d="M3790 1165 c-778 -156 -1417 -284 -1420 -285 -3 -1 443 -91 990 -201 l995 -199 50 35 c166 114 434 366 569 535 68 86 190 265 241 353 24 42 25 47 8 46 -10 -1 -655 -128 -1433 -284z"/>
        <path d="M2295 421 c6 -5 172 -99 371 -210 l361 -201 118 15 c181 24 345 62 520 120 179 59 247 87 225 92 -8 1 -359 43 -780 93 -421 49 -778 92 -795 95 -18 3 -26 2 -20 -4z"/>
    </g>
</svg>
